<svg class="svg-icon" style="width: 1em; height: 1em;vertical-align: middle;fill: currentColor;overflow: hidden;" viewBox="0 0 1024 1024" version="1.1" xmlns="http://www.w3.org/2000/svg"><path d="M810.666667 298.666667 213.333333 298.666667C187.733333 298.666667 170.666667 281.6 170.666667 256s17.066667-42.666667 42.666667-42.666667l597.333333 0c25.6 0 42.666667 17.066667 42.666667 42.666667S836.266667 298.666667 810.666667 298.666667z"  /><path d="M810.666667 469.333333 213.333333 469.333333c-25.6 0-42.666667-17.066667-42.666667-42.666667s17.066667-42.666667 42.666667-42.666667l597.333333 0c25.6 0 42.666667 17.066667 42.666667 42.666667S836.266667 469.333333 810.666667 469.333333z"  /><path d="M810.666667 640 213.333333 640c-25.6 0-42.666667-17.066667-42.666667-42.666667s17.066667-42.666667 42.666667-42.666667l597.333333 0c25.6 0 42.666667 17.066667 42.666667 42.666667S836.266667 640 810.666667 640z"  /><path d="M810.666667 810.666667 213.333333 810.666667c-25.6 0-42.666667-17.066667-42.666667-42.666667s17.066667-42.666667 42.666667-42.666667l597.333333 0c25.6 0 42.666667 17.066667 42.666667 42.666667S836.266667 810.666667 810.666667 810.666667z"  /></svg>