<svg xmlns="http://www.w3.org/2000/svg" xmlns:xlink="http://www.w3.org/1999/xlink" style="margin:auto;background:rgba(NaN, NaN, NaN, 0);display:block;z-index:1;position:relative" width="1782" height="870" preserveAspectRatio="xMidYMid" viewBox="0 0 1782 870">
<g transform="translate(891,435) scale(1,1) translate(-891,-435)"><path id="path0" d="M 442.0083318160927 593.9996106848602
c 0 22.596625099881887 -5.5289614606093975 6.490519975497989 -12.019481436107387 6.490519975497989
S 417.9693689438779 616.596235784742 417.9693689438779 593.9996106848602
s 5.5289614606093975 -6.490519975497989 12.019481436107387 -6.490519975497989
S 442.0083318160927 571.4029855849783 442.0083318160927 593.9996106848602
z" fill="none" stroke="none"></path>
<circle cx="0" cy="0" r="3.68048326481304" fill="#9df871">
  <animateMotion begin="-8.386401258778495s" dur="10s" repeatCount="indefinite">
    <mpath xlink:href="#path0"></mpath>
  </animateMotion>
</circle><path id="path1" d="M 746.2318244537493 709.3220843240789
c 0 34.96811577657241 -8.55602832831027 10.044033254972927 -18.600061583283196 10.044033254972927
S 709.031701287183 744.2902001006513 709.031701287183 709.3220843240789
s 8.55602832831027 -10.044033254972927 18.600061583283196 -10.044033254972927
S 746.2318244537493 674.3539685475065 746.2318244537493 709.3220843240789
z" fill="none" stroke="none"></path>
<circle cx="0" cy="0" r="6.567543465538924" fill="#9df871">
  <animateMotion begin="-1.0183687682639952s" dur="10s" repeatCount="indefinite">
    <mpath xlink:href="#path1"></mpath>
  </animateMotion>
</circle><path id="path2" d="M 179.22291233606458 419.47501475016657
c 0 34.34477881779319 -8.40350971073663 9.86498966042996 -18.268499371166588 9.86498966042996
S 142.68591359373139 453.8197935679598 142.68591359373139 419.47501475016657
s 8.40350971073663 -9.86498966042996 18.268499371166588 -9.86498966042996
S 179.22291233606458 385.13023593237335 179.22291233606458 419.47501475016657
z" fill="none" stroke="none"></path>
<circle cx="0" cy="0" r="5.04869026919551" fill="#9df871">
  <animateMotion begin="-3.014966402120356s" dur="10s" repeatCount="indefinite">
    <mpath xlink:href="#path2"></mpath>
  </animateMotion>
</circle><path id="path3" d="M 684.6424949575912 455.0346380445953
c 0 28.834106312194482 -7.0551536721326915 8.282136919460118 -15.33729059159281 8.282136919460118
S 653.9679137744056 483.86874435678976 653.9679137744056 455.0346380445953
s 7.0551536721326915 -8.282136919460118 15.33729059159281 -8.282136919460118
S 684.6424949575912 426.2005317324008 684.6424949575912 455.0346380445953
z" fill="none" stroke="none"></path>
<circle cx="0" cy="0" r="5.278322239202059" fill="#de9dd6">
  <animateMotion begin="-6.034150423811655s" dur="10s" repeatCount="indefinite">
    <mpath xlink:href="#path3"></mpath>
  </animateMotion>
</circle><path id="path4" d="M 855.432811658367 499.10325347370224
c 0 26.518082478662887 -6.4884669894600675 7.616896031105298 -14.105363020565365 7.616896031105298
S 827.2220856172362 525.6213359523651 827.2220856172362 499.10325347370224
s 6.4884669894600675 -7.616896031105298 14.105363020565365 -7.616896031105298
S 855.432811658367 472.58517099503933 855.432811658367 499.10325347370224
z" fill="none" stroke="none"></path>
<circle cx="0" cy="0" r="4.821735496820051" fill="#9df871">
  <animateMotion begin="-1.4270577546560337s" dur="10s" repeatCount="indefinite">
    <mpath xlink:href="#path4"></mpath>
  </animateMotion>
</circle><path id="path5" d="M 571.0251510577277 590.2681573286247
c 0 30.039734577633602 -7.350147822186944 8.628434399958588 -15.978582222145532 8.628434399958588
S 539.0679866134367 620.3078919062583 539.0679866134367 590.2681573286247
s 7.350147822186944 -8.628434399958588 15.978582222145532 -8.628434399958588
S 571.0251510577277 560.2284227509912 571.0251510577277 590.2681573286247
z" fill="none" stroke="none"></path>
<circle cx="0" cy="0" r="3.9380299359324495" fill="#de9dd6">
  <animateMotion begin="-3.9763409101169866s" dur="10s" repeatCount="indefinite">
    <mpath xlink:href="#path5"></mpath>
  </animateMotion>
</circle><path id="path6" d="M 176.67588915559125 75.8365250093811
c 0 30.40839700552159 -7.440352458797835 8.734326799458328 -16.174679258256162 8.734326799458328
S 144.32653063907892 106.2449220149027 144.32653063907892 75.8365250093811
s 7.440352458797835 -8.734326799458328 16.174679258256162 -8.734326799458328
S 176.67588915559125 45.42812800385951 176.67588915559125 75.8365250093811
z" fill="none" stroke="none"></path>
<circle cx="0" cy="0" r="4.734590374057548" fill="#51cacc">
  <animateMotion begin="-9.018157597251777s" dur="10s" repeatCount="indefinite">
    <mpath xlink:href="#path6"></mpath>
  </animateMotion>
</circle><path id="path7" d="M 1317.3475583383706 438.10723834932014
c 0 19.09931656238984 -4.673237031223046 5.4859739062183595 -10.159210937441404 5.4859739062183595
S 1297.0291364634877 457.20655491171 1297.0291364634877 438.10723834932014
s 4.673237031223046 -5.4859739062183595 10.159210937441404 -5.4859739062183595
S 1317.3475583383706 419.0079217869303 1317.3475583383706 438.10723834932014
z" fill="none" stroke="none"></path>
<circle cx="0" cy="0" r="6.755072168922313" fill="#e0ff77">
  <animateMotion begin="-6.434857362916464s" dur="10s" repeatCount="indefinite">
    <mpath xlink:href="#path7"></mpath>
  </animateMotion>
</circle><path id="path8" d="M 1196.5446070112757 93.50128311974863
c 0 35.127922888331035 -8.595130068421422 10.089935297712106 -18.68506536613353 10.089935297712106
S 1159.1744762790086 128.62920600807968 1159.1744762790086 93.50128311974863
s 8.595130068421422 -10.089935297712106 18.68506536613353 -10.089935297712106
S 1196.5446070112757 58.3733602314176 1196.5446070112757 93.50128311974863
z" fill="none" stroke="none"></path>
<circle cx="0" cy="0" r="5.528567739865013" fill="#de9dd6">
  <animateMotion begin="-5.829591930146152s" dur="10s" repeatCount="indefinite">
    <mpath xlink:href="#path8"></mpath>
  </animateMotion>
</circle><path id="path9" d="M 1017.1736145399947 181.6617690078558
c 0 24.740733255566376 -6.053583668915177 7.106380828726513 -13.15996449764169 7.106380828726513
S 990.8536855447113 206.40250226342218 990.8536855447113 181.6617690078558
s 6.053583668915177 -7.106380828726513 13.15996449764169 -7.106380828726513
S 1017.1736145399947 156.92103575228944 1017.1736145399947 181.6617690078558
z" fill="none" stroke="none"></path>
<circle cx="0" cy="0" r="5.760888203386748" fill="#9df871">
  <animateMotion begin="-2.8899293894746347s" dur="10s" repeatCount="indefinite">
    <mpath xlink:href="#path9"></mpath>
  </animateMotion>
</circle><path id="path10" d="M 907.2787434322166 412.4725822084283
c 0 27.664487214659665 -6.768970275927364 7.946182497827777 -14.71515277375514 7.946182497827777
S 877.8484378847064 440.137069423088 877.8484378847064 412.4725822084283
s 6.768970275927364 -7.946182497827777 14.71515277375514 -7.946182497827777
S 907.2787434322166 384.80809499376863 907.2787434322166 412.4725822084283
z" fill="none" stroke="none"></path>
<circle cx="0" cy="0" r="3.5394919239086886" fill="#9df871">
  <animateMotion begin="-9.565213982537903s" dur="10s" repeatCount="indefinite">
    <mpath xlink:href="#path10"></mpath>
  </animateMotion>
</circle><path id="path11" d="M 159.86278242169763 84.5578518870132
c 0 36.250003132346535 -8.869681617489045 10.41223494226975 -19.281916559758795 10.41223494226975
S 121.29894930218003 120.80785501935974 121.29894930218003 84.5578518870132
s 8.869681617489045 -10.41223494226975 19.281916559758795 -10.41223494226975
S 159.86278242169763 48.307848754666665 159.86278242169763 84.5578518870132
z" fill="none" stroke="none"></path>
<circle cx="0" cy="0" r="5.320325638685416" fill="#de9dd6">
  <animateMotion begin="-6.782673195491888s" dur="10s" repeatCount="indefinite">
    <mpath xlink:href="#path11"></mpath>
  </animateMotion>
</circle><path id="path12" d="M 28.531472633326572 117.6542880771493
c 0 25.228460332858766 -6.1729211452739525 7.246472648799858 -13.41939379407381 7.246472648799858
S 1.692685045178953 142.88274841000808 1.692685045178953 117.6542880771493
s 6.1729211452739525 -7.246472648799858 13.41939379407381 -7.246472648799858
S 28.531472633326572 92.42582774429053 28.531472633326572 117.6542880771493
z" fill="none" stroke="none"></path>
<circle cx="0" cy="0" r="4.480604928471565" fill="#ff708e">
  <animateMotion begin="-8.944393120853677s" dur="10s" repeatCount="indefinite">
    <mpath xlink:href="#path12"></mpath>
  </animateMotion>
</circle><path id="path13" d="M 752.2025617002433 156.57562115228896
c 0 29.917281205164592 -7.320185826795591 8.593261622760043 -15.913447449555633 8.593261622760043
S 720.3756668011321 186.49290235745354 720.3756668011321 156.57562115228896
s 7.320185826795591 -8.593261622760043 15.913447449555633 -8.593261622760043
S 752.2025617002433 126.65833994712438 752.2025617002433 156.57562115228896
z" fill="none" stroke="none"></path>
<circle cx="0" cy="0" r="5.530139547262116" fill="#e0ff77">
  <animateMotion begin="-6.848815586170323s" dur="10s" repeatCount="indefinite">
    <mpath xlink:href="#path13"></mpath>
  </animateMotion>
</circle><path id="path14" d="M 642.7479706570554 716.5224525849201
c 0 20.67774930544359 -5.059449298140453 5.93935352390401 -10.998802822044462 5.93935352390401
S 620.7503650129664 737.2002018903637 620.7503650129664 716.5224525849201
s 5.059449298140453 -5.93935352390401 10.998802822044462 -5.93935352390401
S 642.7479706570554 695.8447032794764 642.7479706570554 716.5224525849201
z" fill="none" stroke="none"></path>
<circle cx="0" cy="0" r="4.135400374974733" fill="#51cacc">
  <animateMotion begin="-5.279476708105635s" dur="10s" repeatCount="indefinite">
    <mpath xlink:href="#path14"></mpath>
  </animateMotion>
</circle><path id="path15" d="M 1215.1473691599556 337.9853290873576
c 0 35.476427341860365 -8.680402434710514 10.190037640747127 -18.87044007545764 10.190037640747127
S 1177.4064890090401 373.461756429218 1177.4064890090401 337.9853290873576
s 8.680402434710514 -10.190037640747127 18.87044007545764 -10.190037640747127
S 1215.1473691599556 302.50890174549727 1215.1473691599556 337.9853290873576
z" fill="none" stroke="none"></path>
<circle cx="0" cy="0" r="6.806215521808743" fill="#ff708e">
  <animateMotion begin="-4.752250571738932s" dur="10s" repeatCount="indefinite">
    <mpath xlink:href="#path15"></mpath>
  </animateMotion>
</circle><path id="path16" d="M 216.00148162907624 676.5695181820522
c 0 29.94480028573543 -7.326919218850158 8.60116603951975 -15.928085258369908 8.60116603951975
S 184.1453111123364 706.5143184677877 184.1453111123364 676.5695181820522
s 7.326919218850158 -8.60116603951975 15.928085258369908 -8.60116603951975
S 216.00148162907624 646.6247178963167 216.00148162907624 676.5695181820522
z" fill="none" stroke="none"></path>
<circle cx="0" cy="0" r="5.058642355819322" fill="#51cacc">
  <animateMotion begin="-7.7550424507505245s" dur="10s" repeatCount="indefinite">
    <mpath xlink:href="#path16"></mpath>
  </animateMotion>
</circle><path id="path17" d="M 909.3142038239982 167.1786591573505
c 0 36.361135444321626 -8.896873566163801 10.444155925496636 -19.341029491660436 10.444155925496636
S 870.6321448406773 203.53979460167213 870.6321448406773 167.1786591573505
s 8.896873566163801 -10.444155925496636 19.341029491660436 -10.444155925496636
S 909.3142038239982 130.81752371302886 909.3142038239982 167.1786591573505
z" fill="none" stroke="none"></path>
<circle cx="0" cy="0" r="3.9499041951826257" fill="#51cacc">
  <animateMotion begin="-7.170470916647629s" dur="10s" repeatCount="indefinite">
    <mpath xlink:href="#path17"></mpath>
  </animateMotion>
</circle><path id="path18" d="M 1447.6313527919694 171.6856308473041
c 0 36.38404919808482 -8.902480122935646 10.450737535620108 -19.353217658555756 10.450737535620108
S 1408.9249174748581 208.06968004538894 1408.9249174748581 171.6856308473041
s 8.902480122935646 -10.450737535620108 19.353217658555756 -10.450737535620108
S 1447.6313527919694 135.3015816492193 1447.6313527919694 171.6856308473041
z" fill="none" stroke="none"></path>
<circle cx="0" cy="0" r="5.322829307739449" fill="#51cacc">
  <animateMotion begin="-4.780382543283867s" dur="10s" repeatCount="indefinite">
    <mpath xlink:href="#path18"></mpath>
  </animateMotion>
</circle><path id="path19" d="M 1720.0472919232716 27.126396540699638
c 0 28.44324032783523 -6.959516250427768 8.169866902676077 -15.129383153103845 8.169866902676077
S 1689.788525617064 55.56963686853487 1689.788525617064 27.126396540699638
s 6.959516250427768 -8.169866902676077 15.129383153103845 -8.169866902676077
S 1720.0472919232716 -1.3168437871355927 1720.0472919232716 27.126396540699638
z" fill="none" stroke="none"></path>
<circle cx="0" cy="0" r="6.901907448726521" fill="#51cacc">
  <animateMotion begin="-9.33484925485459s" dur="10s" repeatCount="indefinite">
    <mpath xlink:href="#path19"></mpath>
  </animateMotion>
</circle><path id="path20" d="M 1643.5071784467928 128.0357980024688
c 0 20.48863467979401 -5.013176570587896 5.885033365472748 -10.898209936060644 5.885033365472748
S 1621.7107585746717 148.5244326822628 1621.7107585746717 128.0357980024688
s 5.013176570587896 -5.885033365472748 10.898209936060644 -5.885033365472748
S 1643.5071784467928 107.54716332267478 1643.5071784467928 128.0357980024688
z" fill="none" stroke="none"></path>
<circle cx="0" cy="0" r="6.242903784932532" fill="#9df871">
  <animateMotion begin="-2.2530817554049487s" dur="10s" repeatCount="indefinite">
    <mpath xlink:href="#path20"></mpath>
  </animateMotion>
</circle><path id="path21" d="M 334.985745954816 774.4510691456848
c 0 24.947976655505514 -6.104292160389646 7.165908188283499 -13.270200348673145 7.165908188283499
S 308.44534525746974 799.3990458011903 308.44534525746974 774.4510691456848
s 6.104292160389646 -7.165908188283499 13.270200348673145 -7.165908188283499
S 334.985745954816 749.5030924901793 334.985745954816 774.4510691456848
z" fill="none" stroke="none"></path>
<circle cx="0" cy="0" r="5.222174919116735" fill="#de9dd6">
  <animateMotion begin="-0.37049026158001874s" dur="10s" repeatCount="indefinite">
    <mpath xlink:href="#path21"></mpath>
  </animateMotion>
</circle><path id="path22" d="M 1024.1533838409173 375.22600457759563
c 0 35.66503485602897 -8.726551081794321 10.244212139497684 -18.970763221292003 10.244212139497684
S 986.2118573983333 410.8910394336246 986.2118573983333 375.22600457759563
s 8.726551081794321 -10.244212139497684 18.970763221292003 -10.244212139497684
S 1024.1533838409173 339.56096972156666 1024.1533838409173 375.22600457759563
z" fill="none" stroke="none"></path>
<circle cx="0" cy="0" r="4.263436980297446" fill="#9df871">
  <animateMotion begin="-2.5586685528065956s" dur="10s" repeatCount="indefinite">
    <mpath xlink:href="#path22"></mpath>
  </animateMotion>
</circle><path id="path23" d="M 693.845428111609 295.4029845283094
c 0 19.222781962112528 -4.703446650304128 5.521437372096152 -10.22488402240028 5.521437372096152
S 673.3956600668084 314.62576649042194 673.3956600668084 295.4029845283094
s 4.703446650304128 -5.521437372096152 10.22488402240028 -5.521437372096152
S 693.845428111609 276.18020256619684 693.845428111609 295.4029845283094
z" fill="none" stroke="none"></path>
<circle cx="0" cy="0" r="6.79490943253852" fill="#e0ff77">
  <animateMotion begin="-9.437902896388204s" dur="10s" repeatCount="indefinite">
    <mpath xlink:href="#path23"></mpath>
  </animateMotion>
</circle><path id="path24" d="M 514.1990632775389 532.0895679966467
c 0 35.508108834594275 -8.68815428931562 10.199137643979206 -18.887291933294826 10.199137643979206
S 476.4244794109493 567.597676831241 476.4244794109493 532.0895679966467
s 8.68815428931562 -10.199137643979206 18.887291933294826 -10.199137643979206
S 514.1990632775389 496.5814591620524 514.1990632775389 532.0895679966467
z" fill="none" stroke="none"></path>
<circle cx="0" cy="0" r="3.597532094147769" fill="#ff708e">
  <animateMotion begin="-8.665537871208928s" dur="10s" repeatCount="indefinite">
    <mpath xlink:href="#path24"></mpath>
  </animateMotion>
</circle><path id="path25" d="M 1003.439352698506 515.338704725616
c 0 26.84811518355292 -6.5692196725714584 7.711692659105626 -14.280912331677085 7.711692659105626
S 974.8775280351518 542.1868199091689 974.8775280351518 515.338704725616
s 6.5692196725714584 -7.711692659105626 14.280912331677085 -7.711692659105626
S 1003.439352698506 488.4905895420631 1003.439352698506 515.338704725616
z" fill="none" stroke="none"></path>
<circle cx="0" cy="0" r="6.288586757232184" fill="#e0ff77">
  <animateMotion begin="-3.8381546528895316s" dur="10s" repeatCount="indefinite">
    <mpath xlink:href="#path25"></mpath>
  </animateMotion>
</circle><path id="path26" d="M 764.500804877888 454.23585554071923
c 0 21.03690426114819 -5.147327638366046 6.042515053734054 -11.1898426921001 6.042515053734054
S 742.1211194936877 475.27275980186744 742.1211194936877 454.23585554071923
s 5.147327638366046 -6.042515053734054 11.1898426921001 -6.042515053734054
S 764.500804877888 433.198951279571 764.500804877888 454.23585554071923
z" fill="none" stroke="none"></path>
<circle cx="0" cy="0" r="4.750980191827974" fill="#51cacc">
  <animateMotion begin="-4.525968555699937s" dur="10s" repeatCount="indefinite">
    <mpath xlink:href="#path26"></mpath>
  </animateMotion>
</circle><path id="path27" d="M 1259.6741304450193 292.40362471367405
c 0 33.6677672451853 -8.237857942970871 9.670528889574502 -17.908386832545375 9.670528889574502
S 1223.8573567799285 326.07139195885935 1223.8573567799285 292.40362471367405
s 8.237857942970871 -9.670528889574502 17.908386832545375 -9.670528889574502
S 1259.6741304450193 258.73585746848875 1259.6741304450193 292.40362471367405
z" fill="none" stroke="none"></path>
<circle cx="0" cy="0" r="5.3930863926245" fill="#de9dd6">
  <animateMotion begin="-8.703478844807748s" dur="10s" repeatCount="indefinite">
    <mpath xlink:href="#path27"></mpath>
  </animateMotion>
</circle><path id="path28" d="M 1510.9773851074847 520.5169472968727
c 0 30.649127329178633 -7.499254559267111 8.80347274348748 -16.30272730275459 8.80347274348748
S 1478.3719305019754 551.1660746260513 1478.3719305019754 520.5169472968727
s 7.499254559267111 -8.80347274348748 16.30272730275459 -8.80347274348748
S 1510.9773851074847 489.86781996769406 1510.9773851074847 520.5169472968727
z" fill="none" stroke="none"></path>
<circle cx="0" cy="0" r="3.581479432727277" fill="#9df871">
  <animateMotion begin="-2.0375352836884497s" dur="10s" repeatCount="indefinite">
    <mpath xlink:href="#path28"></mpath>
  </animateMotion>
</circle><path id="path29" d="M 1501.844271393734 292.7295249583878
c 0 34.86372202123403 -8.530485175408327 10.014047814609777 -18.544532990018105 10.014047814609777
S 1464.755205413698 327.5932469796218 1464.755205413698 292.7295249583878
s 8.530485175408327 -10.014047814609777 18.544532990018105 -10.014047814609777
S 1501.844271393734 257.8658029371538 1501.844271393734 292.7295249583878
z" fill="none" stroke="none"></path>
<circle cx="0" cy="0" r="5.7568404177054715" fill="#51cacc">
  <animateMotion begin="-2.007540107363077s" dur="10s" repeatCount="indefinite">
    <mpath xlink:href="#path29"></mpath>
  </animateMotion>
</circle><path id="path30" d="M 176.14934531238828 585.333053923012
c 0 32.28472652274473 -7.899454361948177 9.273272511852209 -17.172726873800386 9.273272511852209
S 141.80389156478748 617.6177804457567 141.80389156478748 585.333053923012
s 7.899454361948177 -9.273272511852209 17.172726873800386 -9.273272511852209
S 176.14934531238828 553.0483274002673 176.14934531238828 585.333053923012
z" fill="none" stroke="none"></path>
<circle cx="0" cy="0" r="4.408307969174357" fill="#ff708e">
  <animateMotion begin="-8.544031830295427s" dur="10s" repeatCount="indefinite">
    <mpath xlink:href="#path30"></mpath>
  </animateMotion>
</circle><path id="path31" d="M 979.4251011827631 356.7268006009903
c 0 21.08907627562465 -5.16009313126986 6.057500632360272 -11.21759376363013 6.057500632360272
S 956.9899136555028 377.815876876615 956.9899136555028 356.7268006009903
s 5.16009313126986 -6.057500632360272 11.21759376363013 -6.057500632360272
S 979.4251011827631 335.63772432536564 979.4251011827631 356.7268006009903
z" fill="none" stroke="none"></path>
<circle cx="0" cy="0" r="4.358152418985471" fill="#9df871">
  <animateMotion begin="-9.519612864436501s" dur="10s" repeatCount="indefinite">
    <mpath xlink:href="#path31"></mpath>
  </animateMotion>
</circle><path id="path32" d="M 796.0940228371492 570.089679293636
c 0 28.55917565893133 -6.987883405908729 8.203167476501553 -15.191050882410282 8.203167476501553
S 765.7119210723286 598.6488549525673 765.7119210723286 570.089679293636
s 6.987883405908729 -8.203167476501553 15.191050882410282 -8.203167476501553
S 796.0940228371492 541.5305036347047 796.0940228371492 570.089679293636
z" fill="none" stroke="none"></path>
<circle cx="0" cy="0" r="6.392463378418762" fill="#ff708e">
  <animateMotion begin="-4.077852592502325s" dur="10s" repeatCount="indefinite">
    <mpath xlink:href="#path32"></mpath>
  </animateMotion>
</circle><path id="path33" d="M 437.2270241229444 301.0727238853275
c 0 33.3524857049783 -8.160714587388307 9.57996929823845 -17.740683885626755 9.57996929823845
S 401.74565635169085 334.42520959030577 401.74565635169085 301.0727238853275
s 8.160714587388307 -9.57996929823845 17.740683885626755 -9.57996929823845
S 437.2270241229444 267.7202381803492 437.2270241229444 301.0727238853275
z" fill="none" stroke="none"></path>
<circle cx="0" cy="0" r="5.073100930986222" fill="#ff708e">
  <animateMotion begin="-3.260404098385845s" dur="10s" repeatCount="indefinite">
    <mpath xlink:href="#path33"></mpath>
  </animateMotion>
</circle><path id="path34" d="M 1140.3953656567628 400.1949148371361
c 0 21.87094195754786 -5.351400691740433 6.282079072912683 -11.633479764653117 6.282079072912683
S 1117.1284061274564 422.06585679468395 1117.1284061274564 400.1949148371361
s 5.351400691740433 -6.282079072912683 11.633479764653117 -6.282079072912683
S 1140.3953656567628 378.3239728795882 1140.3953656567628 400.1949148371361
z" fill="none" stroke="none"></path>
<circle cx="0" cy="0" r="6.747308539509216" fill="#e0ff77">
  <animateMotion begin="-4.516404440743129s" dur="10s" repeatCount="indefinite">
    <mpath xlink:href="#path34"></mpath>
  </animateMotion>
</circle><path id="path35" d="M 1592.6521173187382 280.827106646538
c 0 28.209069173963353 -6.902219053203798 8.102604975500112 -15.004824028703911 8.102604975500112
S 1562.6424692613302 309.0361758205014 1562.6424692613302 280.827106646538
s 6.902219053203798 -8.102604975500112 15.004824028703911 -8.102604975500112
S 1592.6521173187382 252.61803747257468 1592.6521173187382 280.827106646538
z" fill="none" stroke="none"></path>
<circle cx="0" cy="0" r="4.278788866786083" fill="#e0ff77">
  <animateMotion begin="-3.5612689429390554s" dur="10s" repeatCount="indefinite">
    <mpath xlink:href="#path35"></mpath>
  </animateMotion>
</circle></g>
</svg>