<svg class="svg-icon" style="width: 1em; height: 1em;vertical-align: middle;fill: currentColor;overflow: hidden;" viewBox="0 0 1024 1024" version="1.1" xmlns="http://www.w3.org/2000/svg"><path d="M514.358304 1023.963438c-161.23969 0-305.002606-75.245189-398.38269-192.646696l-115.975577 74.038633 27.16578-427.888456 394.470525 158.753454-129.978934 82.959832a301.163566 301.163566 0 0 0 220.836219 96.122255c167.162781 0 302.699182-136.121398 302.699183-304.051987 0-167.930589-135.536402-304.051987-302.699183-304.051987-121.057736 0-225.47963 71.369586-273.924661 174.511801L52.393795 295.532974C133.598637 120.984611 309.90199 0 514.358304 0c281.529618 0 509.714857 229.245546 509.714857 511.981719 0 282.772735-228.185239 511.981719-509.714857 511.981719z" fill="" /></svg>