<svg class="svg-icon" style="width: 1em; height: 1em;vertical-align: middle;fill: currentColor;overflow: hidden;" viewBox="0 0 1024 1024" version="1.1" xmlns="http://www.w3.org/2000/svg"><path d="M390.272 919.552a53.077333 53.077333 0 0 1-38.186667-16.128L35.84 578.602667a96.298667 96.298667 0 0 1 0-133.333334l316.245333-324.821333a53.333333 53.333333 0 0 1 76.416 74.410667l-294.4 302.208a21.333333 21.333333 0 0 0 0 29.866666l294.4 302.165334a53.333333 53.333333 0 0 1-38.4 90.538666zM633.770667 919.552a53.333333 53.333333 0 0 1-38.4-90.538667l294.4-302.208a21.333333 21.333333 0 0 0 0-29.866666l-294.4-302.165334a53.333333 53.333333 0 0 1 76.416-74.410666l316.202666 324.778666a96.298667 96.298667 0 0 1 0 133.333334l-316.245333 324.864a53.077333 53.077333 0 0 1-37.973333 16.213333z m277.930666-399.914667z"  /></svg>