<svg class="svg-icon" style="width: 1em; height: 1em;vertical-align: middle;fill: currentColor;overflow: hidden;" viewBox="0 0 1024 1024" version="1.1" xmlns="http://www.w3.org/2000/svg"><path d="M960 10.581333h-325.845333a53.333333 53.333333 0 0 0 0 106.666667h46.336a10.666667 10.666667 0 0 1 9.002666 16.384L203.946667 896.725333a21.333333 21.333333 0 0 1-18.005334 9.856H64a53.333333 53.333333 0 0 0 0 106.666667h325.845333a53.333333 53.333333 0 0 0 0-106.666667H343.509333a10.666667 10.666667 0 0 1-9.002666-16.384L820.053333 127.146667a21.333333 21.333333 0 0 1 18.005334-9.898667H960a53.333333 53.333333 0 0 0 0-106.666667z"  /></svg>