<svg class="svg-icon" style="width: 1em; height: 1em;vertical-align: middle;fill: currentColor;overflow: hidden;" viewBox="0 0 1024 1024" version="1.1" xmlns="http://www.w3.org/2000/svg"><path d="M330.666667 192h640a42.666667 42.666667 0 0 0 0-85.333333h-640a42.666667 42.666667 0 0 0 0 85.333333zM970.666667 469.333333h-640a42.666667 42.666667 0 1 0 0 85.333334h640a42.666667 42.666667 0 0 0 0-85.333334zM970.666667 832h-640a42.666667 42.666667 0 0 0 0 85.333333h640a42.666667 42.666667 0 0 0 0-85.333333zM94.378667 735.914667a85.333333 85.333333 0 0 0-82.474667 63.317333 32 32 0 1 0 61.866667 16.469333 21.333333 21.333333 0 1 1 20.608 26.88 32 32 0 1 0 0 64 21.333333 21.333333 0 1 1-20.565334 27.093334 32 32 0 1 0-61.653333 17.066666 85.333333 85.333333 0 1 0 153.130667-70.314666 10.709333 10.709333 0 0 1 0-11.861334 85.333333 85.333333 0 0 0-70.912-132.736zM181.333333 458.581333a85.333333 85.333333 0 0 0-170.666666 0 32 32 0 0 0 64 0 21.333333 21.333333 0 0 1 42.666666 0 43.989333 43.989333 0 0 1-9.685333 27.52L17.664 598.570667A32 32 0 0 0 42.666667 650.581333h106.666666a32 32 0 0 0 0-64h-17.877333a10.624 10.624 0 0 1-8.32-17.322666L157.866667 526.08a108.544 108.544 0 0 0 23.466666-67.498667zM170.666667 223.914667h-10.666667A10.666667 10.666667 0 0 1 149.333333 213.333333V69.248A58.752 58.752 0 0 0 90.666667 10.581333H64a32 32 0 0 0 0 64h10.666667A10.666667 10.666667 0 0 1 85.333333 85.333333v128a10.666667 10.666667 0 0 1-10.666666 10.666667H64a32 32 0 0 0 0 64H170.666667a32 32 0 0 0 0-64z"  /></svg>