<svg class="svg-icon" style="width: 1em; height: 1em;vertical-align: middle;fill: currentColor;overflow: hidden;" viewBox="0 0 1024 1024" version="1.1" xmlns="http://www.w3.org/2000/svg"><path d="M960 10.581333H308.394667a297.685333 297.685333 0 1 0 0 595.370667h98.901333a10.666667 10.666667 0 0 1 10.666667 10.666667V960a53.333333 53.333333 0 0 0 106.666666 0V128a10.666667 10.666667 0 0 1 10.666667-10.666667h157.098667a10.666667 10.666667 0 0 1 10.666666 10.666667v832a53.333333 53.333333 0 0 0 106.666667 0V128a10.624 10.624 0 0 1 10.666667-10.666667H960a53.333333 53.333333 0 0 0 0-106.666666zM418.133333 488.618667a10.666667 10.666667 0 0 1-10.666666 10.666666H308.394667a191.018667 191.018667 0 1 1 0-382.037333h98.901333A10.666667 10.666667 0 0 1 418.133333 128z"  /></svg>