<svg class="svg-icon" style="width: 1em; height: 1em;vertical-align: middle;fill: currentColor;overflow: hidden;" viewBox="0 0 1024 1024" version="1.1" xmlns="http://www.w3.org/2000/svg"><path d="M791.850667 167.765333a210.858667 210.858667 0 1 0 0 421.674667 196.650667 196.650667 0 0 0 47.573333-6.016 10.666667 10.666667 0 0 1 11.776 15.701333 291.413333 291.413333 0 0 1-250.794667 150.314667 53.333333 53.333333 0 0 0 0 106.666667 414.293333 414.293333 0 0 0 402.261334-424.533334V378.581333a211.072 211.072 0 0 0-210.816-210.816zM266.069333 167.765333a210.858667 210.858667 0 0 0 0 421.674667 196.266667 196.266667 0 0 0 47.573334-6.016 10.666667 10.666667 0 0 1 11.818666 15.701333 291.413333 291.413333 0 0 1-250.794666 150.314667 53.333333 53.333333 0 0 0 0 106.666667 414.336 414.336 0 0 0 402.261333-424.533334V378.581333a211.072 211.072 0 0 0-210.858667-210.816z"  /></svg>