<svg class="svg-icon" style="width: 1em; height: 1em;vertical-align: middle;fill: currentColor;overflow: hidden;" viewBox="0 0 1024 1024" version="1.1" xmlns="http://www.w3.org/2000/svg"><path d="M964.608 6.869333a21.333333 21.333333 0 0 0-23.253333 4.608L830.805333 122.026667a10.666667 10.666667 0 0 1-12.458666 1.92 534.912 534.912 0 0 0-553.216 36.906666A523.050667 523.050667 0 0 0 260.266667 1008.298667a53.333333 53.333333 0 0 0 62.976-86.101334 416.384 416.384 0 0 1 3.882666-674.517333 426.666667 426.666667 0 0 1 403.882667-46.933333 10.666667 10.666667 0 0 1 3.584 17.450666l-78.933333 78.933334a21.333333 21.333333 0 0 0 15.104 36.394666h285.866666a21.333333 21.333333 0 0 0 21.333334-21.333333V26.581333a21.333333 21.333333 0 0 0-13.354667-19.712z"  /></svg>