<svg class="svg-icon" style="width: 1em; height: 1em;vertical-align: middle;fill: currentColor;overflow: hidden;" viewBox="0 0 1024 1024" version="1.1" xmlns="http://www.w3.org/2000/svg"><path d="M106.666667 170.581333m-106.666667 0a106.666667 106.666667 0 1 0 213.333333 0 106.666667 106.666667 0 1 0-213.333333 0Z"  /><path d="M362.666667 213.333333H981.333333a42.666667 42.666667 0 0 0 0-85.333333H362.666667a42.666667 42.666667 0 0 0 0 85.333333z"  /><path d="M106.666667 511.914667m-106.666667 0a106.666667 106.666667 0 1 0 213.333333 0 106.666667 106.666667 0 1 0-213.333333 0Z"  /><path d="M981.333333 469.333333H362.666667a42.666667 42.666667 0 0 0 0 85.333334H981.333333a42.666667 42.666667 0 0 0 0-85.333334z"  /><path d="M106.666667 853.248m-106.666667 0a106.666667 106.666667 0 1 0 213.333333 0 106.666667 106.666667 0 1 0-213.333333 0Z"  /><path d="M981.333333 810.666667H362.666667a42.666667 42.666667 0 0 0 0 85.333333H981.333333a42.666667 42.666667 0 0 0 0-85.333333z"  /></svg>