<svg class="svg-icon" style="width: 1em; height: 1em;vertical-align: middle;fill: currentColor;overflow: hidden;" viewBox="0 0 1024 1024" version="1.1" xmlns="http://www.w3.org/2000/svg"><path d="M758.869333 160.853333a535.125333 535.125333 0 0 0-553.173333-36.906666 10.624 10.624 0 0 1-12.458667-1.92L82.645333 11.477333A21.632 21.632 0 0 0 59.392 6.826667a21.333333 21.333333 0 0 0-13.141333 19.712v285.866666a21.333333 21.333333 0 0 0 21.333333 21.333334h285.866667a21.333333 21.333333 0 0 0 15.104-36.437334L289.408 218.24a10.794667 10.794667 0 0 1-2.901333-9.728 10.624 10.624 0 0 1 6.485333-7.722667 426.666667 426.666667 0 0 1 403.882667 46.933334 416.384 416.384 0 0 1 4.010666 674.517333 53.333333 53.333333 0 0 0 62.848 86.016 517.205333 517.205333 0 0 0 213.888-425.002667 517.333333 517.333333 0 0 0-218.752-422.4z"  /></svg>